<mxfile host="app.diagrams.net" modified="2022-08-11T08:15:07.611Z" agent="5.0 (Macintosh; Intel Mac OS X 10_15_7) AppleWebKit/537.36 (KHTML, like Gecko) Chrome/103.0.0.0 Safari/537.36" etag="Xfanr8PkKJovCN5nHlPi" version="20.2.3" type="github">
  <diagram id="64Jt0cq0rktBT73mkihS" name="第 1 页">
    <mxGraphModel dx="946" dy="550" grid="0" gridSize="10" guides="1" tooltips="1" connect="1" arrows="1" fold="1" page="1" pageScale="1" pageWidth="827" pageHeight="1169" math="0" shadow="0">
      <root>
        <mxCell id="0" />
        <mxCell id="1" parent="0" />
        <mxCell id="h9jA4bjuBwyg49SDh_s5-1" value="" style="ellipse;whiteSpace=wrap;html=1;" vertex="1" parent="1">
          <mxGeometry x="77" y="283" width="36" height="37" as="geometry" />
        </mxCell>
        <mxCell id="h9jA4bjuBwyg49SDh_s5-17" style="edgeStyle=orthogonalEdgeStyle;rounded=0;orthogonalLoop=1;jettySize=auto;html=1;entryX=0.5;entryY=0;entryDx=0;entryDy=0;" edge="1" parent="1" source="h9jA4bjuBwyg49SDh_s5-2" target="h9jA4bjuBwyg49SDh_s5-1">
          <mxGeometry relative="1" as="geometry" />
        </mxCell>
        <mxCell id="h9jA4bjuBwyg49SDh_s5-18" value="copy" style="edgeLabel;html=1;align=center;verticalAlign=middle;resizable=0;points=[];" vertex="1" connectable="0" parent="h9jA4bjuBwyg49SDh_s5-17">
          <mxGeometry x="-0.2545" y="-3" relative="1" as="geometry">
            <mxPoint as="offset" />
          </mxGeometry>
        </mxCell>
        <mxCell id="h9jA4bjuBwyg49SDh_s5-2" value="&lt;font style=&quot;font-size: 14px;&quot;&gt;module&lt;br&gt;module-python&lt;/font&gt;" style="rounded=1;whiteSpace=wrap;html=1;" vertex="1" parent="1">
          <mxGeometry x="35" y="173" width="120" height="55" as="geometry" />
        </mxCell>
        <mxCell id="h9jA4bjuBwyg49SDh_s5-3" value="" style="ellipse;whiteSpace=wrap;html=1;" vertex="1" parent="1">
          <mxGeometry x="113" y="342" width="36" height="37" as="geometry" />
        </mxCell>
        <mxCell id="h9jA4bjuBwyg49SDh_s5-4" value="" style="ellipse;whiteSpace=wrap;html=1;" vertex="1" parent="1">
          <mxGeometry x="41" y="342" width="36" height="37" as="geometry" />
        </mxCell>
        <mxCell id="h9jA4bjuBwyg49SDh_s5-8" value="" style="endArrow=classic;html=1;rounded=0;entryX=1;entryY=0;entryDx=0;entryDy=0;" edge="1" parent="1" target="h9jA4bjuBwyg49SDh_s5-4">
          <mxGeometry width="50" height="50" relative="1" as="geometry">
            <mxPoint x="93" y="322" as="sourcePoint" />
            <mxPoint x="131" y="355" as="targetPoint" />
          </mxGeometry>
        </mxCell>
        <mxCell id="h9jA4bjuBwyg49SDh_s5-11" value="" style="endArrow=classic;html=1;rounded=0;entryX=0;entryY=0;entryDx=0;entryDy=0;" edge="1" parent="1">
          <mxGeometry width="50" height="50" relative="1" as="geometry">
            <mxPoint x="97" y="320" as="sourcePoint" />
            <mxPoint x="122.09893324363611" y="345.5989332436361" as="targetPoint" />
          </mxGeometry>
        </mxCell>
        <mxCell id="h9jA4bjuBwyg49SDh_s5-22" value="" style="verticalLabelPosition=bottom;verticalAlign=top;html=1;shape=mxgraph.basic.rect;fillColor2=none;strokeWidth=1;size=20;indent=5;dashed=1;textOpacity=0;fillColor=none;" vertex="1" parent="1">
          <mxGeometry x="35" y="637" width="724" height="340" as="geometry" />
        </mxCell>
        <mxCell id="h9jA4bjuBwyg49SDh_s5-24" value="" style="endArrow=none;dashed=1;html=1;rounded=0;exitX=0.26;exitY=1.006;exitDx=0;exitDy=0;exitPerimeter=0;entryX=0.261;entryY=0.009;entryDx=0;entryDy=0;entryPerimeter=0;" edge="1" parent="1" source="h9jA4bjuBwyg49SDh_s5-22" target="h9jA4bjuBwyg49SDh_s5-22">
          <mxGeometry width="50" height="50" relative="1" as="geometry">
            <mxPoint x="217" y="177" as="sourcePoint" />
            <mxPoint x="267" y="123" as="targetPoint" />
          </mxGeometry>
        </mxCell>
        <mxCell id="h9jA4bjuBwyg49SDh_s5-27" value="" style="edgeStyle=orthogonalEdgeStyle;rounded=0;orthogonalLoop=1;jettySize=auto;html=1;fontSize=14;" edge="1" parent="1" source="h9jA4bjuBwyg49SDh_s5-25" target="h9jA4bjuBwyg49SDh_s5-26">
          <mxGeometry relative="1" as="geometry" />
        </mxCell>
        <mxCell id="h9jA4bjuBwyg49SDh_s5-25" value="&lt;font style=&quot;font-size: 14px;&quot;&gt;bml-modelengine&lt;br&gt;画布管理，任务管理，实验管理&lt;br&gt;&lt;/font&gt;" style="rounded=1;whiteSpace=wrap;html=1;fillColor=none;" vertex="1" parent="1">
          <mxGeometry x="220" y="120" width="206" height="65" as="geometry" />
        </mxCell>
        <mxCell id="h9jA4bjuBwyg49SDh_s5-47" style="edgeStyle=orthogonalEdgeStyle;rounded=0;orthogonalLoop=1;jettySize=auto;html=1;exitX=0.5;exitY=1;exitDx=0;exitDy=0;entryX=0.25;entryY=0;entryDx=0;entryDy=0;fontSize=14;" edge="1" parent="1" source="h9jA4bjuBwyg49SDh_s5-26" target="h9jA4bjuBwyg49SDh_s5-29">
          <mxGeometry relative="1" as="geometry" />
        </mxCell>
        <mxCell id="h9jA4bjuBwyg49SDh_s5-48" value="提交任务" style="edgeLabel;html=1;align=center;verticalAlign=middle;resizable=0;points=[];fontSize=14;" vertex="1" connectable="0" parent="h9jA4bjuBwyg49SDh_s5-47">
          <mxGeometry x="-0.0806" y="3" relative="1" as="geometry">
            <mxPoint as="offset" />
          </mxGeometry>
        </mxCell>
        <mxCell id="h9jA4bjuBwyg49SDh_s5-61" style="edgeStyle=orthogonalEdgeStyle;rounded=0;orthogonalLoop=1;jettySize=auto;html=1;entryX=0.145;entryY=1;entryDx=0;entryDy=-4.35;entryPerimeter=0;fontSize=14;shape=link;" edge="1" parent="1" source="h9jA4bjuBwyg49SDh_s5-26" target="h9jA4bjuBwyg49SDh_s5-52">
          <mxGeometry relative="1" as="geometry" />
        </mxCell>
        <mxCell id="h9jA4bjuBwyg49SDh_s5-26" value="bml-jobengine&lt;br&gt;任务状态管理" style="rounded=1;whiteSpace=wrap;html=1;fontSize=14;fillColor=none;" vertex="1" parent="1">
          <mxGeometry x="263" y="237" width="121" height="58" as="geometry" />
        </mxCell>
        <mxCell id="h9jA4bjuBwyg49SDh_s5-29" value="" style="rounded=0;whiteSpace=wrap;html=1;fontSize=14;fillColor=default;strokeColor=#1A1A1A;" vertex="1" parent="1">
          <mxGeometry x="220" y="359" width="412" height="150" as="geometry" />
        </mxCell>
        <mxCell id="h9jA4bjuBwyg49SDh_s5-30" value="Kubernetes" style="text;html=1;strokeColor=none;fillColor=none;align=center;verticalAlign=middle;whiteSpace=wrap;rounded=0;fontSize=14;" vertex="1" parent="1">
          <mxGeometry x="237" y="365" width="60" height="30" as="geometry" />
        </mxCell>
        <mxCell id="h9jA4bjuBwyg49SDh_s5-31" value="" style="rounded=1;whiteSpace=wrap;html=1;fontSize=14;strokeColor=#1A1A1A;fillColor=default;" vertex="1" parent="1">
          <mxGeometry x="244.5" y="403" width="157" height="96" as="geometry" />
        </mxCell>
        <mxCell id="h9jA4bjuBwyg49SDh_s5-34" value="SparkApp" style="rounded=0;whiteSpace=wrap;html=1;fontSize=14;strokeColor=#1A1A1A;fillColor=default;" vertex="1" parent="1">
          <mxGeometry x="251" y="447" width="69" height="35" as="geometry" />
        </mxCell>
        <mxCell id="h9jA4bjuBwyg49SDh_s5-35" value="Executor" style="rounded=0;whiteSpace=wrap;html=1;fontSize=14;strokeColor=#1A1A1A;fillColor=default;" vertex="1" parent="1">
          <mxGeometry x="328" y="435" width="67" height="25" as="geometry" />
        </mxCell>
        <mxCell id="h9jA4bjuBwyg49SDh_s5-36" value="Driver" style="rounded=0;whiteSpace=wrap;html=1;fontSize=14;strokeColor=#1A1A1A;fillColor=default;" vertex="1" parent="1">
          <mxGeometry x="328" y="467" width="67" height="25" as="geometry" />
        </mxCell>
        <mxCell id="h9jA4bjuBwyg49SDh_s5-37" value="Spark-operator" style="text;html=1;strokeColor=none;fillColor=none;align=center;verticalAlign=middle;whiteSpace=wrap;rounded=0;fontSize=14;" vertex="1" parent="1">
          <mxGeometry x="263" y="409" width="108" height="30" as="geometry" />
        </mxCell>
        <mxCell id="h9jA4bjuBwyg49SDh_s5-38" value="" style="rounded=1;whiteSpace=wrap;html=1;fontSize=14;strokeColor=#1A1A1A;fillColor=default;" vertex="1" parent="1">
          <mxGeometry x="417" y="403" width="130" height="96" as="geometry" />
        </mxCell>
        <mxCell id="h9jA4bjuBwyg49SDh_s5-39" value="Argo Workflow" style="text;html=1;strokeColor=none;fillColor=none;align=center;verticalAlign=middle;whiteSpace=wrap;rounded=0;fontSize=14;" vertex="1" parent="1">
          <mxGeometry x="426" y="409" width="108" height="30" as="geometry" />
        </mxCell>
        <mxCell id="h9jA4bjuBwyg49SDh_s5-41" value="" style="ellipse;whiteSpace=wrap;html=1;aspect=fixed;fontSize=14;strokeColor=#1A1A1A;fillColor=default;" vertex="1" parent="1">
          <mxGeometry x="438" y="453" width="25" height="25" as="geometry" />
        </mxCell>
        <mxCell id="h9jA4bjuBwyg49SDh_s5-42" value="" style="ellipse;whiteSpace=wrap;html=1;aspect=fixed;fontSize=14;strokeColor=#1A1A1A;fillColor=default;" vertex="1" parent="1">
          <mxGeometry x="492" y="435" width="25" height="25" as="geometry" />
        </mxCell>
        <mxCell id="h9jA4bjuBwyg49SDh_s5-43" value="" style="ellipse;whiteSpace=wrap;html=1;aspect=fixed;fontSize=14;strokeColor=#1A1A1A;fillColor=default;" vertex="1" parent="1">
          <mxGeometry x="492" y="469" width="25" height="25" as="geometry" />
        </mxCell>
        <mxCell id="h9jA4bjuBwyg49SDh_s5-44" value="" style="endArrow=classic;html=1;rounded=0;entryX=0;entryY=0.5;entryDx=0;entryDy=0;" edge="1" parent="1" target="h9jA4bjuBwyg49SDh_s5-42">
          <mxGeometry width="50" height="50" relative="1" as="geometry">
            <mxPoint x="463" y="460" as="sourcePoint" />
            <mxPoint x="441.901066756364" y="485.598933243636" as="targetPoint" />
          </mxGeometry>
        </mxCell>
        <mxCell id="h9jA4bjuBwyg49SDh_s5-45" value="" style="endArrow=classic;html=1;rounded=0;entryX=0;entryY=0;entryDx=0;entryDy=0;exitX=1;exitY=0.5;exitDx=0;exitDy=0;" edge="1" parent="1" source="h9jA4bjuBwyg49SDh_s5-41" target="h9jA4bjuBwyg49SDh_s5-43">
          <mxGeometry width="50" height="50" relative="1" as="geometry">
            <mxPoint x="473" y="470" as="sourcePoint" />
            <mxPoint x="502" y="457.5" as="targetPoint" />
          </mxGeometry>
        </mxCell>
        <mxCell id="h9jA4bjuBwyg49SDh_s5-46" value="Pod" style="rounded=1;whiteSpace=wrap;html=1;fontSize=14;strokeColor=#1A1A1A;fillColor=default;" vertex="1" parent="1">
          <mxGeometry x="562" y="403" width="46" height="96" as="geometry" />
        </mxCell>
        <mxCell id="h9jA4bjuBwyg49SDh_s5-50" value="" style="curved=1;endArrow=classic;html=1;rounded=0;fontSize=14;exitX=0.5;exitY=1;exitDx=0;exitDy=0;entryX=0.485;entryY=-0.003;entryDx=0;entryDy=0;entryPerimeter=0;" edge="1" parent="1" source="h9jA4bjuBwyg49SDh_s5-26" target="h9jA4bjuBwyg49SDh_s5-29">
          <mxGeometry width="50" height="50" relative="1" as="geometry">
            <mxPoint x="465" y="345" as="sourcePoint" />
            <mxPoint x="515" y="295" as="targetPoint" />
            <Array as="points">
              <mxPoint x="371" y="338" />
              <mxPoint x="414" y="340" />
            </Array>
          </mxGeometry>
        </mxCell>
        <mxCell id="h9jA4bjuBwyg49SDh_s5-51" value="事件监听" style="edgeLabel;html=1;align=center;verticalAlign=middle;resizable=0;points=[];fontSize=14;" vertex="1" connectable="0" parent="h9jA4bjuBwyg49SDh_s5-50">
          <mxGeometry x="0.1095" y="-1" relative="1" as="geometry">
            <mxPoint x="25" y="-15" as="offset" />
          </mxGeometry>
        </mxCell>
        <mxCell id="h9jA4bjuBwyg49SDh_s5-53" value="" style="edgeStyle=orthogonalEdgeStyle;rounded=0;orthogonalLoop=1;jettySize=auto;html=1;fontSize=14;shape=link;" edge="1" parent="1" source="h9jA4bjuBwyg49SDh_s5-52" target="h9jA4bjuBwyg49SDh_s5-25">
          <mxGeometry relative="1" as="geometry" />
        </mxCell>
        <mxCell id="h9jA4bjuBwyg49SDh_s5-52" value="mysql/pg" style="shape=cylinder3;whiteSpace=wrap;html=1;boundedLbl=1;backgroundOutline=1;size=15;fontSize=14;strokeColor=#1A1A1A;fillColor=default;" vertex="1" parent="1">
          <mxGeometry x="462" y="54" width="86" height="63" as="geometry" />
        </mxCell>
        <mxCell id="h9jA4bjuBwyg49SDh_s5-55" style="edgeStyle=orthogonalEdgeStyle;rounded=0;orthogonalLoop=1;jettySize=auto;html=1;entryX=0.5;entryY=1;entryDx=0;entryDy=0;entryPerimeter=0;fontSize=14;" edge="1" parent="1" source="h9jA4bjuBwyg49SDh_s5-54" target="h9jA4bjuBwyg49SDh_s5-52">
          <mxGeometry relative="1" as="geometry" />
        </mxCell>
        <mxCell id="h9jA4bjuBwyg49SDh_s5-56" value="module.sql" style="edgeLabel;html=1;align=center;verticalAlign=middle;resizable=0;points=[];fontSize=14;" vertex="1" connectable="0" parent="h9jA4bjuBwyg49SDh_s5-55">
          <mxGeometry x="-0.1807" relative="1" as="geometry">
            <mxPoint as="offset" />
          </mxGeometry>
        </mxCell>
        <mxCell id="h9jA4bjuBwyg49SDh_s5-58" value="" style="edgeStyle=orthogonalEdgeStyle;rounded=0;orthogonalLoop=1;jettySize=auto;html=1;fontSize=14;" edge="1" parent="1" source="h9jA4bjuBwyg49SDh_s5-54" target="h9jA4bjuBwyg49SDh_s5-57">
          <mxGeometry relative="1" as="geometry" />
        </mxCell>
        <mxCell id="h9jA4bjuBwyg49SDh_s5-59" value="module_python.zip&lt;br&gt;module-0.1-jar-with-dependencies.jar" style="edgeLabel;html=1;align=center;verticalAlign=middle;resizable=0;points=[];fontSize=14;" vertex="1" connectable="0" parent="h9jA4bjuBwyg49SDh_s5-58">
          <mxGeometry x="-0.2245" relative="1" as="geometry">
            <mxPoint as="offset" />
          </mxGeometry>
        </mxCell>
        <mxCell id="h9jA4bjuBwyg49SDh_s5-54" value="&lt;font style=&quot;font-size: 14px;&quot;&gt;算子库产出&lt;br&gt;module&lt;br&gt;module-python&lt;/font&gt;" style="rounded=1;whiteSpace=wrap;html=1;" vertex="1" parent="1">
          <mxGeometry x="623" y="117" width="121" height="96" as="geometry" />
        </mxCell>
        <mxCell id="h9jA4bjuBwyg49SDh_s5-60" style="edgeStyle=orthogonalEdgeStyle;rounded=0;orthogonalLoop=1;jettySize=auto;html=1;entryX=0.835;entryY=0.01;entryDx=0;entryDy=0;entryPerimeter=0;fontSize=14;" edge="1" parent="1" source="h9jA4bjuBwyg49SDh_s5-57" target="h9jA4bjuBwyg49SDh_s5-29">
          <mxGeometry relative="1" as="geometry" />
        </mxCell>
        <mxCell id="h9jA4bjuBwyg49SDh_s5-57" value="pyml&lt;br&gt;image" style="rounded=1;whiteSpace=wrap;html=1;fontSize=14;strokeColor=#1A1A1A;fillColor=default;" vertex="1" parent="1">
          <mxGeometry x="637.5" y="286" width="92" height="40" as="geometry" />
        </mxCell>
      </root>
    </mxGraphModel>
  </diagram>
</mxfile>
